<mxfile host="app.diagrams.net" modified="2025-04-26T08:04:06.629Z" agent="Mozilla/5.0 (Windows NT 10.0; Win64; x64) AppleWebKit/537.36 (KHTML, like Gecko) Chrome/135.0.0.0 Safari/537.36 Edg/135.0.0.0" version="24.7.2" etag="DJukSyhKNLrQYjcf85qW" type="github">
  <diagram name="第 1 页" id="umUEU_wccnB-XsiAWEZV">
    <mxGraphModel>
      <root>
        <mxCell id="0" />
        <mxCell id="1" parent="0" />
      </root>
    </mxGraphModel>
  </diagram>
</mxfile>
